<svg width="26" height="26" viewBox="0 0 26 26" fill="none" xmlns="http://www.w3.org/2000/svg">
<path d="M13.0001 2.16675C7.02983 2.16675 2.16675 7.02983 2.16675 13.0001C2.16675 18.9703 7.02983 23.8334 13.0001 23.8334C18.9703 23.8334 23.8334 18.9703 23.8334 13.0001C23.8334 7.02983 18.9703 2.16675 13.0001 2.16675ZM13.0001 4.33341C17.7994 4.33341 21.6667 8.20078 21.6667 13.0001C21.6667 17.7994 17.7994 21.6667 13.0001 21.6667C8.20078 21.6667 4.33341 17.7994 4.33341 13.0001C4.33341 8.20078 8.20078 4.33341 13.0001 4.33341ZM11.9167 6.50008V13.4486L16.5675 18.0994L18.0994 16.5675L14.0834 12.5515V6.50008H11.9167Z" fill="#FC6A16"/>
</svg>
