<svg width="26" height="26" viewBox="0 0 26 26" fill="none" xmlns="http://www.w3.org/2000/svg">
<path d="M4.33341 4.33325C3.13633 4.33325 2.16675 5.30284 2.16675 6.49992V8.37671L3.25008 9.05591L4.33341 9.73511L13.0001 15.1666L21.6667 9.77108L22.7501 9.09611L23.8334 8.42326V6.49992C23.8334 5.30284 22.8638 4.33325 21.6667 4.33325H4.33341ZM4.33341 6.49992H21.6667V7.33358L13.0001 12.727L4.33341 7.29549V6.49992ZM2.16675 10.9327V19.4999C2.16675 20.697 3.13633 21.6666 4.33341 21.6666H21.6667C22.8638 21.6666 23.8334 20.697 23.8334 19.4999V10.975L21.6667 12.3228V19.4999H4.33341V12.2911L2.16675 10.9327Z" fill="#FC6A16"/>
</svg>
