<svg width="32" height="32" viewBox="0 0 32 32" fill="none" xmlns="http://www.w3.org/2000/svg">
<path d="M15.952 2.66791C15.8173 2.6744 15.6853 2.70806 15.564 2.76687L3.89732 8.42312C3.71533 8.50714 3.56278 8.6439 3.45947 8.81568C3.35616 8.98745 3.30685 9.18631 3.31794 9.38645C3.32903 9.58659 3.4 9.77879 3.52165 9.9381C3.64331 10.0974 3.81003 10.2165 4.00019 10.2799V24.9999C4.00019 27.0131 5.65367 28.6666 7.66685 28.6666H15.8361C15.9435 28.6842 16.053 28.6842 16.1603 28.6666H24.3335C26.3467 28.6666 28.0002 27.0131 28.0002 24.9999V10.2812C28.1907 10.218 28.3579 10.099 28.4798 9.93953C28.6018 9.78008 28.673 9.58761 28.6841 9.38717C28.6952 9.18672 28.6457 8.98758 28.5421 8.81564C28.4384 8.6437 28.2855 8.50693 28.1031 8.42312L16.4364 2.76687C16.2858 2.69387 16.1192 2.65984 15.952 2.66791ZM15.0002 5.26296V15.9999H6.00019V9.62624L15.0002 5.26296ZM17.0002 5.26296L26.0002 9.62624V15.9999H17.0002V5.26296ZM9.66686 9.33328C9.53434 9.3314 9.40278 9.35588 9.27981 9.4053C9.15684 9.45471 9.04492 9.52807 8.95055 9.62111C8.85618 9.71416 8.78125 9.82503 8.7301 9.94729C8.67895 10.0695 8.65261 10.2007 8.65261 10.3333C8.65261 10.4658 8.67895 10.597 8.7301 10.7193C8.78125 10.8415 8.85618 10.9524 8.95055 11.0454C9.04492 11.1385 9.15684 11.2118 9.27981 11.2613C9.40278 11.3107 9.53434 11.3351 9.66686 11.3333H11.0002C11.1327 11.3351 11.2643 11.3107 11.3872 11.2613C11.5102 11.2118 11.6221 11.1385 11.7165 11.0454C11.8109 10.9524 11.8858 10.8415 11.9369 10.7193C11.9881 10.597 12.0144 10.4658 12.0144 10.3333C12.0144 10.2007 11.9881 10.0695 11.9369 9.94729C11.8858 9.82503 11.8109 9.71416 11.7165 9.62111C11.6221 9.52807 11.5102 9.45471 11.3872 9.4053C11.2643 9.35588 11.1327 9.3314 11.0002 9.33328H9.66686ZM21.0002 9.33328C20.8677 9.3314 20.7361 9.35588 20.6131 9.4053C20.4902 9.45471 20.3783 9.52807 20.2839 9.62111C20.1895 9.71416 20.1146 9.82503 20.0634 9.94729C20.0123 10.0695 19.9859 10.2007 19.9859 10.3333C19.9859 10.4658 20.0123 10.597 20.0634 10.7193C20.1146 10.8415 20.1895 10.9524 20.2839 11.0454C20.3783 11.1385 20.4902 11.2118 20.6131 11.2613C20.7361 11.3107 20.8677 11.3351 21.0002 11.3333H22.3335C22.466 11.3351 22.5976 11.3107 22.7206 11.2613C22.8435 11.2118 22.9555 11.1385 23.0498 11.0454C23.1442 10.9524 23.2191 10.8415 23.2703 10.7193C23.3214 10.597 23.3478 10.4658 23.3478 10.3333C23.3478 10.2007 23.3214 10.0695 23.2703 9.94729C23.2191 9.82503 23.1442 9.71416 23.0498 9.62111C22.9555 9.52807 22.8435 9.45471 22.7206 9.4053C22.5976 9.35588 22.466 9.3314 22.3335 9.33328H21.0002ZM6.00019 17.9999H15.0002V26.6666H7.66685C6.7347 26.6666 6.00019 25.9321 6.00019 24.9999V17.9999ZM17.0002 17.9999H26.0002V24.9999C26.0002 25.9321 25.2657 26.6666 24.3335 26.6666H17.0002V17.9999ZM9.66686 19.9999C9.53434 19.9981 9.40278 20.0225 9.27981 20.072C9.15684 20.1214 9.04492 20.1947 8.95055 20.2878C8.85618 20.3808 8.78125 20.4917 8.7301 20.614C8.67895 20.7362 8.65261 20.8674 8.65261 20.9999C8.65261 21.1325 8.67895 21.2637 8.7301 21.3859C8.78125 21.5082 8.85618 21.6191 8.95055 21.7121C9.04492 21.8051 9.15684 21.8785 9.27981 21.9279C9.40278 21.9773 9.53434 22.0018 9.66686 21.9999H11.0002C11.1327 22.0018 11.2643 21.9773 11.3872 21.9279C11.5102 21.8785 11.6221 21.8051 11.7165 21.7121C11.8109 21.6191 11.8858 21.5082 11.9369 21.3859C11.9881 21.2637 12.0144 21.1325 12.0144 20.9999C12.0144 20.8674 11.9881 20.7362 11.9369 20.614C11.8858 20.4917 11.8109 20.3808 11.7165 20.2878C11.6221 20.1947 11.5102 20.1214 11.3872 20.072C11.2643 20.0225 11.1327 19.9981 11.0002 19.9999H9.66686ZM21.0002 19.9999C20.8677 19.9981 20.7361 20.0225 20.6131 20.072C20.4902 20.1214 20.3783 20.1947 20.2839 20.2878C20.1895 20.3808 20.1146 20.4917 20.0634 20.614C20.0123 20.7362 19.9859 20.8674 19.9859 20.9999C19.9859 21.1325 20.0123 21.2637 20.0634 21.3859C20.1146 21.5082 20.1895 21.6191 20.2839 21.7121C20.3783 21.8051 20.4902 21.8785 20.6131 21.9279C20.7361 21.9773 20.8677 22.0018 21.0002 21.9999H22.3335C22.466 22.0018 22.5976 21.9773 22.7206 21.9279C22.8435 21.8785 22.9555 21.8051 23.0498 21.7121C23.1442 21.6191 23.2191 21.5082 23.2703 21.3859C23.3214 21.2637 23.3478 21.1325 23.3478 20.9999C23.3478 20.8674 23.3214 20.7362 23.2703 20.614C23.2191 20.4917 23.1442 20.3808 23.0498 20.2878C22.9555 20.1947 22.8435 20.1214 22.7206 20.072C22.5976 20.0225 22.466 19.9981 22.3335 19.9999H21.0002Z" fill="#FC6A16"/>
</svg>
