<svg width="26" height="26" viewBox="0 0 26 26" fill="none" xmlns="http://www.w3.org/2000/svg">
<path d="M12.9999 2.17725C8.82259 2.17725 5.42505 5.5769 5.42505 9.75423C5.42505 14.6108 11.889 22.4999 12.1641 22.8325L12.9999 23.846L13.8357 22.8325C14.1109 22.4989 20.5748 14.6108 20.5748 9.75423C20.5748 5.57581 17.1773 2.17725 12.9999 2.17725ZM12.9999 4.34391C15.9823 4.34391 18.4081 6.77181 18.4081 9.75423C18.4081 12.6846 15.0344 17.7246 12.9999 20.395C10.9654 17.7268 7.59172 12.689 7.59172 9.75423C7.59172 6.77181 10.0175 4.34391 12.9999 4.34391ZM12.9999 7.04167C11.5038 7.04167 10.2916 8.25392 10.2916 9.75C10.2916 11.2461 11.5038 12.4583 12.9999 12.4583C14.496 12.4583 15.7083 11.2461 15.7083 9.75C15.7083 8.25392 14.496 7.04167 12.9999 7.04167Z" fill="#FC6A16"/>
</svg>
