<svg width="288" height="29" viewBox="0 0 288 29" fill="none" xmlns="http://www.w3.org/2000/svg">
<path d="M42.722 6.764H32.652V11.894H42.532V17.746H32.652V27.512H26.572V0.912H42.722V6.764Z" fill="#2E333E"/>
<path d="M59.9182 8.512H65.6182V27.512H59.9182V25.726C58.5755 27.2713 56.6882 28.044 54.2562 28.044C51.7482 28.044 49.6075 27.0813 47.8342 25.156C46.0609 23.2053 45.1742 20.824 45.1742 18.012C45.1742 15.2 46.0609 12.8313 47.8342 10.906C49.6075 8.95533 51.7482 7.98 54.2562 7.98C56.6882 7.98 58.5755 8.75267 59.9182 10.298V8.512ZM52.1282 21.394C52.9642 22.23 54.0535 22.648 55.3962 22.648C56.7389 22.648 57.8282 22.23 58.6642 21.394C59.5002 20.558 59.9182 19.4307 59.9182 18.012C59.9182 16.5933 59.5002 15.466 58.6642 14.63C57.8282 13.794 56.7389 13.376 55.3962 13.376C54.0535 13.376 52.9642 13.794 52.1282 14.63C51.2922 15.466 50.8742 16.5933 50.8742 18.012C50.8742 19.4307 51.2922 20.558 52.1282 21.394Z" fill="#2E333E"/>
<path d="M75.0104 14.06C75.0104 14.44 75.3271 14.7567 75.9604 15.01C76.6191 15.238 77.4044 15.4787 78.3164 15.732C79.2284 15.96 80.1404 16.264 81.0524 16.644C81.9644 17.024 82.7371 17.6573 83.3704 18.544C84.0291 19.4053 84.3584 20.4947 84.3584 21.812C84.3584 23.864 83.5984 25.422 82.0784 26.486C80.5584 27.5247 78.6838 28.044 76.4544 28.044C72.4518 28.044 69.7284 26.5367 68.2844 23.522L73.2244 20.71C73.7311 22.2047 74.8078 22.952 76.4544 22.952C77.8224 22.952 78.5064 22.5593 78.5064 21.774C78.5064 21.394 78.1771 21.0773 77.5184 20.824C76.8851 20.5707 76.1124 20.33 75.2004 20.102C74.2884 19.8487 73.3764 19.532 72.4644 19.152C71.5524 18.7467 70.7671 18.126 70.1084 17.29C69.4751 16.454 69.1584 15.428 69.1584 14.212C69.1584 12.236 69.8678 10.7033 71.2864 9.614C72.7304 8.52467 74.5038 7.98 76.6064 7.98C78.1771 7.98 79.6084 8.33467 80.9004 9.044C82.1924 9.728 83.2311 10.7287 84.0164 12.046L79.1524 14.668C78.5444 13.5533 77.6958 12.996 76.6064 12.996C75.5424 12.996 75.0104 13.3507 75.0104 14.06Z" fill="#2E333E"/>
<path d="M98.3383 7.98C100.365 7.98 102.05 8.67667 103.392 10.07C104.76 11.4633 105.444 13.3887 105.444 15.846V27.512H99.7443V16.682C99.7443 15.5673 99.4276 14.7187 98.7943 14.136C98.1863 13.528 97.401 13.224 96.4383 13.224C95.349 13.224 94.4876 13.5533 93.8543 14.212C93.221 14.8707 92.9043 15.846 92.9043 17.138V27.512H87.2043V0.912H92.9043V10.298C94.0443 8.75267 95.8556 7.98 98.3383 7.98Z" fill="#2E333E"/>
<path d="M114.603 5.852C113.944 6.51067 113.146 6.84 112.209 6.84C111.271 6.84 110.461 6.51067 109.777 5.852C109.118 5.168 108.789 4.35733 108.789 3.42C108.789 2.48267 109.118 1.68467 109.777 1.026C110.461 0.342 111.271 0 112.209 0C113.146 0 113.944 0.342 114.603 1.026C115.287 1.68467 115.629 2.48267 115.629 3.42C115.629 4.35733 115.287 5.168 114.603 5.852ZM109.359 27.512V8.512H115.059V27.512H109.359Z" fill="#2E333E"/>
<path d="M135.494 25.156C133.543 27.0813 131.162 28.044 128.35 28.044C125.538 28.044 123.156 27.0813 121.206 25.156C119.255 23.2053 118.28 20.824 118.28 18.012C118.28 15.2 119.255 12.8313 121.206 10.906C123.156 8.95533 125.538 7.98 128.35 7.98C131.162 7.98 133.543 8.95533 135.494 10.906C137.444 12.8313 138.42 15.2 138.42 18.012C138.42 20.824 137.444 23.2053 135.494 25.156ZM125.234 21.242C126.07 22.078 127.108 22.496 128.35 22.496C129.591 22.496 130.63 22.078 131.466 21.242C132.302 20.406 132.72 19.3293 132.72 18.012C132.72 16.6947 132.302 15.618 131.466 14.782C130.63 13.946 129.591 13.528 128.35 13.528C127.108 13.528 126.07 13.946 125.234 14.782C124.398 15.618 123.98 16.6947 123.98 18.012C123.98 19.3293 124.398 20.406 125.234 21.242Z" fill="#2E333E"/>
<path d="M152.778 7.98C154.804 7.98 156.489 8.67667 157.832 10.07C159.2 11.4633 159.884 13.3887 159.884 15.846V27.512H154.184V16.682C154.184 15.5673 153.867 14.7187 153.234 14.136C152.626 13.528 151.84 13.224 150.878 13.224C149.788 13.224 148.927 13.5533 148.294 14.212C147.66 14.8707 147.344 15.846 147.344 17.138V27.512H141.644V8.512H147.344V10.298C148.484 8.75267 150.295 7.98 152.778 7.98Z" fill="#2E333E"/>
<path d="M193.222 0.911999V27.512H187.142V12.046L180.264 23.332H179.58L172.702 12.046V27.512H166.622V0.911999H172.702L179.922 12.73L187.142 0.911999H193.222Z" fill="#E55B0C"/>
<path d="M193.222 0.911999V27.512H187.142V12.046L180.264 23.332H179.58L172.702 12.046V27.512H166.622V0.911999H172.702L179.922 12.73L187.142 0.911999H193.222Z" fill="url(#paint0_linear_5_711)"/>
<path d="M211.398 8.512H217.098V27.512H211.398V25.726C210.055 27.2713 208.168 28.044 205.736 28.044C203.228 28.044 201.087 27.0813 199.314 25.156C197.54 23.2053 196.654 20.824 196.654 18.012C196.654 15.2 197.54 12.8313 199.314 10.906C201.087 8.95533 203.228 7.98 205.736 7.98C208.168 7.98 210.055 8.75267 211.398 10.298V8.512ZM203.608 21.394C204.444 22.23 205.533 22.648 206.876 22.648C208.218 22.648 209.308 22.23 210.144 21.394C210.98 20.558 211.398 19.4307 211.398 18.012C211.398 16.5933 210.98 15.466 210.144 14.63C209.308 13.794 208.218 13.376 206.876 13.376C205.533 13.376 204.444 13.794 203.608 14.63C202.772 15.466 202.354 16.5933 202.354 18.012C202.354 19.4307 202.772 20.558 203.608 21.394Z" fill="#E55B0C"/>
<path d="M211.398 8.512H217.098V27.512H211.398V25.726C210.055 27.2713 208.168 28.044 205.736 28.044C203.228 28.044 201.087 27.0813 199.314 25.156C197.54 23.2053 196.654 20.824 196.654 18.012C196.654 15.2 197.54 12.8313 199.314 10.906C201.087 8.95533 203.228 7.98 205.736 7.98C208.168 7.98 210.055 8.75267 211.398 10.298V8.512ZM203.608 21.394C204.444 22.23 205.533 22.648 206.876 22.648C208.218 22.648 209.308 22.23 210.144 21.394C210.98 20.558 211.398 19.4307 211.398 18.012C211.398 16.5933 210.98 15.466 210.144 14.63C209.308 13.794 208.218 13.376 206.876 13.376C205.533 13.376 204.444 13.794 203.608 14.63C202.772 15.466 202.354 16.5933 202.354 18.012C202.354 19.4307 202.772 20.558 203.608 21.394Z" fill="url(#paint1_linear_5_711)"/>
<path d="M226.979 11.894C227.334 10.678 228.043 9.75333 229.107 9.12C230.197 8.46133 231.387 8.132 232.679 8.132V14.592C231.286 14.364 229.981 14.6047 228.765 15.314C227.575 15.998 226.979 17.2013 226.979 18.924V27.512H221.279V8.512H226.979V11.894Z" fill="#E55B0C"/>
<path d="M226.979 11.894C227.334 10.678 228.043 9.75333 229.107 9.12C230.197 8.46133 231.387 8.132 232.679 8.132V14.592C231.286 14.364 229.981 14.6047 228.765 15.314C227.575 15.998 226.979 17.2013 226.979 18.924V27.512H221.279V8.512H226.979V11.894Z" fill="url(#paint2_linear_5_711)"/>
<path d="M253.584 27.512H247.124L241.044 19.114V27.512H235.344V0.911999H241.044V16.834L246.744 8.512H253.394L246.478 18.012L253.584 27.512Z" fill="#E55B0C"/>
<path d="M253.584 27.512H247.124L241.044 19.114V27.512H235.344V0.911999H241.044V16.834L246.744 8.512H253.394L246.478 18.012L253.584 27.512Z" fill="url(#paint3_linear_5_711)"/>
<path d="M259.621 20.292C260.28 22.0653 261.8 22.952 264.181 22.952C265.727 22.952 266.943 22.4707 267.829 21.508L272.389 24.13C270.515 26.7393 267.753 28.044 264.105 28.044C260.913 28.044 258.355 27.094 256.429 25.194C254.529 23.294 253.579 20.9 253.579 18.012C253.579 15.1493 254.517 12.768 256.391 10.868C258.291 8.94267 260.723 7.98 263.687 7.98C266.449 7.98 268.741 8.94267 270.565 10.868C272.415 12.768 273.339 15.1493 273.339 18.012C273.339 18.8227 273.263 19.5827 273.111 20.292H259.621ZM259.507 16.036H267.677C267.12 14.0347 265.777 13.034 263.649 13.034C261.445 13.034 260.065 14.0347 259.507 16.036Z" fill="#E55B0C"/>
<path d="M259.621 20.292C260.28 22.0653 261.8 22.952 264.181 22.952C265.727 22.952 266.943 22.4707 267.829 21.508L272.389 24.13C270.515 26.7393 267.753 28.044 264.105 28.044C260.913 28.044 258.355 27.094 256.429 25.194C254.529 23.294 253.579 20.9 253.579 18.012C253.579 15.1493 254.517 12.768 256.391 10.868C258.291 8.94267 260.723 7.98 263.687 7.98C266.449 7.98 268.741 8.94267 270.565 10.868C272.415 12.768 273.339 15.1493 273.339 18.012C273.339 18.8227 273.263 19.5827 273.111 20.292H259.621ZM259.507 16.036H267.677C267.12 14.0347 265.777 13.034 263.649 13.034C261.445 13.034 260.065 14.0347 259.507 16.036Z" fill="url(#paint4_linear_5_711)"/>
<path d="M287.15 13.984H283.236V20.71C283.236 21.47 283.54 21.9513 284.148 22.154C284.756 22.3567 285.756 22.42 287.15 22.344V27.512C283.527 27.892 281.019 27.55 279.626 26.486C278.232 25.3967 277.536 23.4713 277.536 20.71V13.984H274.496V8.512H277.536V4.902L283.236 3.192V8.512H287.15V13.984Z" fill="#E55B0C"/>
<path d="M287.15 13.984H283.236V20.71C283.236 21.47 283.54 21.9513 284.148 22.154C284.756 22.3567 285.756 22.42 287.15 22.344V27.512C283.527 27.892 281.019 27.55 279.626 26.486C278.232 25.3967 277.536 23.4713 277.536 20.71V13.984H274.496V8.512H277.536V4.902L283.236 3.192V8.512H287.15V13.984Z" fill="url(#paint5_linear_5_711)"/>
<path fill-rule="evenodd" clip-rule="evenodd" d="M0 7L15 14.5L0 22V7Z" fill="#FC6A16"/>
<defs>
<linearGradient id="paint0_linear_5_711" x1="164" y1="-9.48801" x2="292.949" y2="7.44771" gradientUnits="userSpaceOnUse">
<stop stop-color="#FC6A16"/>
<stop offset="1" stop-color="#FA9639"/>
</linearGradient>
<linearGradient id="paint1_linear_5_711" x1="164" y1="-9.48801" x2="292.949" y2="7.44771" gradientUnits="userSpaceOnUse">
<stop stop-color="#FC6A16"/>
<stop offset="1" stop-color="#FA9639"/>
</linearGradient>
<linearGradient id="paint2_linear_5_711" x1="164" y1="-9.48801" x2="292.949" y2="7.44771" gradientUnits="userSpaceOnUse">
<stop stop-color="#FC6A16"/>
<stop offset="1" stop-color="#FA9639"/>
</linearGradient>
<linearGradient id="paint3_linear_5_711" x1="164" y1="-9.48801" x2="292.949" y2="7.44771" gradientUnits="userSpaceOnUse">
<stop stop-color="#FC6A16"/>
<stop offset="1" stop-color="#FA9639"/>
</linearGradient>
<linearGradient id="paint4_linear_5_711" x1="164" y1="-9.48801" x2="292.949" y2="7.44771" gradientUnits="userSpaceOnUse">
<stop stop-color="#FC6A16"/>
<stop offset="1" stop-color="#FA9639"/>
</linearGradient>
<linearGradient id="paint5_linear_5_711" x1="164" y1="-9.48801" x2="292.949" y2="7.44771" gradientUnits="userSpaceOnUse">
<stop stop-color="#FC6A16"/>
<stop offset="1" stop-color="#FA9639"/>
</linearGradient>
</defs>
</svg>
