<svg width="26" height="26" viewBox="0 0 26 26" fill="none" xmlns="http://www.w3.org/2000/svg">
<path d="M22.2701 17.342C22.963 17.8104 23.2871 18.6586 23.0766 19.4527C22.4826 21.6951 20.9074 22.6603 20.0441 23.0854C19.3287 23.4368 18.2529 23.4058 18.1276 23.3935C16.116 23.197 10.9863 22.1979 6.82465 17.1858C3.09586 12.6955 2.57779 8.9636 2.60081 7.13892C2.61403 6.12165 2.99939 5.1781 3.68639 4.48174C4.33813 3.82076 5.197 3.24726 5.80223 2.88262C6.67628 2.35531 7.78928 2.58481 8.3901 3.41533L11.3041 7.43623C11.8741 8.224 11.7903 9.29434 11.1058 9.98234L10.2464 10.8443C10.0603 11.0311 10.0545 11.3313 10.2327 11.5254L14.2049 15.8432C14.3816 16.0353 14.6779 16.055 14.8781 15.8874L16.1542 14.82C16.8441 14.2421 17.8328 14.2087 18.558 14.7389C19.1994 15.2077 20.5362 16.1695 22.2701 17.342ZM18.318 21.4371C19.3287 21.4711 20.6434 20.4558 21.0602 19.3387C21.1419 19.1195 21.067 18.8704 20.8726 18.7416C19.4908 17.8231 18.3851 17.0383 17.7099 16.5503C17.5282 16.4191 17.2844 16.4299 17.1125 16.5739L15.7742 17.6964C14.9722 18.3677 13.7891 18.29 13.0806 17.5194L8.47481 12.5117C7.76137 11.7363 7.78586 10.5337 8.52917 9.78774L9.42427 8.88989C9.59468 8.71887 9.61573 8.44907 9.47422 8.25348L7.07438 4.94221C6.9216 4.73139 6.63319 4.67438 6.41529 4.81591C5.97263 5.10291 4.63879 6.23664 4.55946 7.16398C4.48503 8.03086 4.68873 9.42211 5.39875 11.1785C5.95647 12.5584 6.86578 14.1654 8.32889 15.9277C9.64462 17.5121 11.0642 18.6443 12.4274 19.4537C14.8948 20.9192 17.1717 21.3983 18.318 21.4371Z" fill="#FC6A16"/>
</svg>
